<?xml version="1.0" encoding="utf-8"?>
<!-- Generator: Adobe Illustrator 19.0.0, SVG Export Plug-In . SVG Version: 6.00 Build 0)  -->
<svg version="1.1" id="Layer_1" xmlns="http://www.w3.org/2000/svg" xmlns:xlink="http://www.w3.org/1999/xlink" x="0px" y="0px"
	 viewBox="0 0 112.8 138.5" style="enable-background:new 0 0 112.8 138.5;" xml:space="preserve">
<style type="text/css">
	.st0{fill-rule:evenodd;clip-rule:evenodd;fill:#E10109;}
	.st1{fill-rule:evenodd;clip-rule:evenodd;fill:#666666;}
	.st2{fill:#FFFFFF;}
</style>
<g id="XMLID_3_">
	<path id="XMLID_105_" class="st0" d="M53,6.3c-1.1-1.6-3-2.6-5-2.6c-2,0-3.8,0.9-5,2.6C30.6,23.5-0.3,68.8-0.3,90.2
		c0,26.7,21.6,48.3,48.3,48.3c26.7,0,48.3-21.6,48.3-48.3C96.3,68.8,65.3,23.5,53,6.3L53,6.3z M27,109.6c-0.8,1-2,1.5-3.2,1.5
		c-1,0-1.9-0.3-2.7-1c-12-10.1-7.8-25-7.7-25.6c0.6-2.2,3-3.5,5.2-2.9c2.2,0.6,3.5,3,2.9,5.2c-0.1,0.5-2.7,10.4,5,16.8
		C28.3,105.2,28.6,107.9,27,109.6L27,109.6z"/>
	<path id="XMLID_104_" class="st1" d="M76.9,10.4c17.8,0,32.2,14.4,32.2,32.2c0,17.8-14.4,32.2-32.2,32.2
		c-17.8,0-32.2-14.4-32.2-32.2C44.7,24.8,59.1,10.4,76.9,10.4L76.9,10.4z"/>
	<path id="XMLID_11_" class="st2" d="M76.9,7c9.8,0,18.7,4,25.1,10.4h0c6.4,6.4,10.4,15.3,10.4,25.2c0,9.8-4,18.7-10.4,25.2h0
		c-6.4,6.4-15.3,10.4-25.1,10.4c-9.8,0-18.7-4-25.2-10.4v0c-6.4-6.4-10.4-15.3-10.4-25.1c0-9.8,4-18.7,10.4-25.1v0
		C58.2,11,67.1,7,76.9,7L76.9,7z M97.3,22.2c-5.2-5.2-12.4-8.4-20.4-8.4c-8,0-15.2,3.2-20.4,8.4l0,0C51.3,27.4,48,34.6,48,42.6
		c0,8,3.2,15.2,8.4,20.4l0,0c5.2,5.2,12.4,8.4,20.4,8.4c8,0,15.2-3.2,20.4-8.4l0,0c5.2-5.2,8.5-12.4,8.5-20.4
		C105.7,34.6,102.5,27.4,97.3,22.2L97.3,22.2L97.3,22.2z"/>
	<path id="XMLID_4_" class="st2" d="M102,44.2V41c-8.5,0-4.5,0-13,0v3.2C97.5,44.2,93.5,44.2,102,44.2L102,44.2z M76.5,40.5h1.8
		c0.7,0,1.2-0.2,1.6-0.5c0.4-0.3,0.6-0.8,0.6-1.4c0-0.6-0.2-1-0.6-1.4c-0.4-0.3-0.9-0.5-1.6-0.5h-1.8V40.5L76.5,40.5z M76.5,48.5
		h2.2c1,0,1.7-0.2,2.2-0.6c0.5-0.4,0.8-0.9,0.8-1.6c0-0.7-0.2-1.3-0.8-1.6c-0.5-0.4-1.3-0.5-2.3-0.5h-2.1V48.5L76.5,48.5z M75,52.3
		c-1.1,0-1.9-0.2-2.3-0.6c-0.4-0.4-0.6-1.1-0.6-2.2V36c0-1.2,0.2-2,0.7-2.4c0.5-0.4,1.2-0.7,2.4-0.7h3.6c1.9,0,3.4,0.4,4.5,1.3
		c1.1,0.8,1.6,2,1.6,3.5c0,0.9-0.2,1.7-0.6,2.3c-0.4,0.6-1,1.1-1.8,1.5c1.3,0.3,2.2,0.9,2.9,1.7c0.7,0.9,1,1.9,1,3.2
		c0,1.8-0.6,3.3-1.8,4.3c-1.2,1-2.9,1.5-5.1,1.5H75L75,52.3z M58.2,48.6l-0.7,2c-0.2,0.6-0.5,1.1-0.9,1.5c-0.4,0.3-0.8,0.5-1.3,0.5
		c-0.6,0-1.1-0.2-1.5-0.6c-0.4-0.4-0.6-0.9-0.6-1.5c0-0.2,0-0.5,0.1-0.7c0-0.2,0.1-0.4,0.2-0.6l5-13.6c0.4-1,0.8-1.7,1.4-2.2
		c0.5-0.5,1.2-0.7,2-0.7c0.8,0,1.4,0.2,2,0.7c0.6,0.4,1,1.1,1.3,1.9l4.9,13.9c0.1,0.3,0.2,0.6,0.2,0.8c0,0.2,0.1,0.4,0.1,0.6
		c0,0.6-0.2,1.1-0.6,1.5c-0.4,0.4-0.9,0.6-1.6,0.6c-0.6,0-1-0.2-1.4-0.5c-0.4-0.4-0.7-0.9-0.9-1.6l-0.5-1.8H58.2L58.2,48.6z
		 M59.5,44.6h4.6l-2.2-7.2L59.5,44.6L59.5,44.6z"/>
</g>
</svg>
