<?xml version="1.0" encoding="utf-8"?>
<!-- Generator: Adobe Illustrator 19.0.0, SVG Export Plug-In . SVG Version: 6.00 Build 0)  -->
<svg version="1.1" id="Layer_1" xmlns="http://www.w3.org/2000/svg" xmlns:xlink="http://www.w3.org/1999/xlink" x="0px" y="0px"
	 viewBox="0 0 112.8 138.5" style="enable-background:new 0 0 112.8 138.5;" xml:space="preserve">
<style type="text/css">
	.st0{fill-rule:evenodd;clip-rule:evenodd;fill:#E10109;}
	.st1{fill-rule:evenodd;clip-rule:evenodd;fill:#666666;}
	.st2{fill:#FFFFFF;}
</style>
<g id="XMLID_3_">
	<path id="XMLID_105_" class="st0" d="M53.3,5.3c-1.1-1.6-3-2.6-5-2.6c-2,0-3.8,0.9-5,2.6C30.9,22.5,0,67.8,0,89.2
		c0,26.7,21.6,48.3,48.3,48.3c26.7,0,48.3-21.6,48.3-48.3C96.6,67.8,65.6,22.5,53.3,5.3L53.3,5.3z M27.4,108.6c-0.8,1-2,1.5-3.2,1.5
		c-1,0-1.9-0.3-2.7-1c-12-10.1-7.8-25-7.7-25.6c0.6-2.2,3-3.5,5.2-2.9c2.2,0.6,3.5,3,2.9,5.2c-0.1,0.5-2.7,10.4,5,16.8
		C28.6,104.2,28.9,106.9,27.4,108.6L27.4,108.6z"/>
	<path id="XMLID_104_" class="st1" d="M77.2,9.4c17.8,0,32.2,14.4,32.2,32.2c0,17.8-14.4,32.2-32.2,32.2C59.4,73.8,45,59.4,45,41.6
		C45,23.8,59.4,9.4,77.2,9.4L77.2,9.4z"/>
	<path id="XMLID_11_" class="st2" d="M77.2,6c9.8,0,18.7,4,25.1,10.4h0c6.4,6.4,10.4,15.3,10.4,25.2c0,9.8-4,18.7-10.4,25.2h0
		C95.9,73.2,87,77.2,77.2,77.2c-9.8,0-18.7-4-25.1-10.4l0,0c-6.4-6.4-10.4-15.3-10.4-25.2c0-9.8,4-18.7,10.4-25.2l0,0
		C58.5,10,67.4,6,77.2,6L77.2,6z M97.6,21.2c-5.2-5.2-12.4-8.4-20.4-8.4c-8,0-15.2,3.2-20.4,8.4v0c-5.2,5.2-8.5,12.4-8.5,20.4
		c0,8,3.2,15.2,8.5,20.4v0c5.2,5.2,12.4,8.4,20.4,8.4c8,0,15.2-3.2,20.4-8.4l0,0c5.2-5.2,8.4-12.4,8.4-20.4
		C106,33.6,102.8,26.4,97.6,21.2L97.6,21.2L97.6,21.2z"/>
	<path id="XMLID_4_" class="st2" d="M97.1,48.1v-4.9h4.9V40h-4.9v-4.9h-3.2V40H89v3.2h4.9v4.9H97.1L97.1,48.1z M76.6,39.5h1.8
		c0.7,0,1.2-0.2,1.6-0.5c0.4-0.3,0.6-0.8,0.6-1.4c0-0.6-0.2-1-0.6-1.4c-0.4-0.3-0.9-0.5-1.6-0.5h-1.8V39.5L76.6,39.5z M76.6,47.5
		h2.2c1,0,1.7-0.2,2.2-0.6c0.5-0.4,0.8-0.9,0.8-1.6c0-0.7-0.2-1.3-0.7-1.6c-0.5-0.4-1.3-0.5-2.3-0.5h-2.1V47.5L76.6,47.5z
		 M75.2,51.3c-1.1,0-1.9-0.2-2.3-0.6c-0.4-0.4-0.6-1.1-0.6-2.2V35c0-1.2,0.2-2,0.7-2.4c0.5-0.4,1.2-0.7,2.4-0.7h3.6
		c1.9,0,3.4,0.4,4.5,1.3c1.1,0.8,1.6,2,1.6,3.5c0,0.9-0.2,1.7-0.6,2.3c-0.4,0.6-1,1.1-1.8,1.5c1.3,0.3,2.2,0.9,2.9,1.7
		c0.7,0.9,1,1.9,1,3.2c0,1.8-0.6,3.3-1.8,4.3c-1.2,1-2.9,1.5-5.1,1.5H75.2L75.2,51.3z M58.4,47.6l-0.7,2c-0.2,0.6-0.5,1.1-0.9,1.5
		c-0.4,0.3-0.8,0.5-1.3,0.5c-0.6,0-1.1-0.2-1.5-0.6c-0.4-0.4-0.6-0.9-0.6-1.5c0-0.2,0-0.5,0.1-0.7c0-0.2,0.1-0.4,0.2-0.6l5-13.6
		c0.4-1,0.8-1.7,1.4-2.2c0.5-0.5,1.2-0.7,2-0.7c0.7,0,1.4,0.2,2,0.7c0.6,0.4,1,1.1,1.3,1.9l4.9,13.9c0.1,0.3,0.2,0.6,0.2,0.8
		c0,0.2,0.1,0.4,0.1,0.6c0,0.6-0.2,1.1-0.6,1.5c-0.4,0.4-0.9,0.6-1.6,0.6c-0.6,0-1-0.2-1.4-0.5c-0.4-0.4-0.7-0.9-0.9-1.6l-0.5-1.8
		H58.4L58.4,47.6z M59.6,43.6h4.6L62,36.4L59.6,43.6L59.6,43.6z"/>
</g>
</svg>
