<?xml version="1.0" encoding="utf-8"?>
<!-- Generator: Adobe Illustrator 19.0.0, SVG Export Plug-In . SVG Version: 6.00 Build 0)  -->
<svg version="1.1" id="Layer_1" xmlns="http://www.w3.org/2000/svg" xmlns:xlink="http://www.w3.org/1999/xlink" x="0px" y="0px"
	 viewBox="0 0 112.8 138.5" style="enable-background:new 0 0 112.8 138.5;" xml:space="preserve">
<style type="text/css">
	.st0{fill-rule:evenodd;clip-rule:evenodd;fill:#E10109;}
	.st1{fill-rule:evenodd;clip-rule:evenodd;fill:#666666;}
	.st2{fill:#FFFFFF;}
</style>
<g id="XMLID_3_">
	<path id="XMLID_13_" class="st0" d="M53.3,4.6c-1.1-1.6-3-2.6-5-2.6c-2,0-3.8,0.9-5,2.6C30.9,21.8,0,67.1,0,88.5
		c0,26.7,21.6,48.3,48.3,48.3c26.7,0,48.3-21.6,48.3-48.3C96.6,67.1,65.6,21.8,53.3,4.6L53.3,4.6z M27.4,108c-0.8,1-2,1.5-3.2,1.5
		c-1,0-1.9-0.3-2.7-1c-12-10.1-7.8-25-7.7-25.6c0.6-2.2,3-3.5,5.2-2.9c2.2,0.6,3.5,3,2.9,5.2c-0.1,0.5-2.7,10.4,5,16.8
		C28.6,103.5,28.9,106.2,27.4,108L27.4,108z"/>
	<path id="XMLID_12_" class="st1" d="M77.2,8.7c17.8,0,32.2,14.4,32.2,32.2c0,17.8-14.4,32.2-32.2,32.2C59.4,73.1,45,58.7,45,40.9
		C45,23.1,59.4,8.7,77.2,8.7L77.2,8.7z"/>
	<path id="XMLID_9_" class="st2" d="M77.2,5.4c9.8,0,18.7,4,25.1,10.4l0,0c6.4,6.4,10.4,15.3,10.4,25.2c0,9.8-4,18.7-10.4,25.2l0,0
		C95.9,72.5,87,76.5,77.2,76.5c-9.8,0-18.7-4-25.1-10.4l0,0c-6.4-6.4-10.4-15.3-10.4-25.1c0-9.8,4-18.7,10.4-25.2h0
		C58.5,9.3,67.4,5.4,77.2,5.4L77.2,5.4z M97.6,20.5c-5.2-5.2-12.4-8.4-20.4-8.4c-8,0-15.2,3.2-20.4,8.4l0,0
		c-5.2,5.2-8.4,12.4-8.4,20.4c0,8,3.2,15.2,8.4,20.4c5.2,5.2,12.4,8.4,20.4,8.4c8,0,15.2-3.2,20.4-8.4v0c5.2-5.2,8.5-12.4,8.5-20.4
		C106,33,102.8,25.7,97.6,20.5L97.6,20.5L97.6,20.5z"/>
	<path id="XMLID_4_" class="st2" d="M98.7,42.5v-3.2c-8.5,0-4.5,0-13,0v3.2C94.2,42.5,90.2,42.5,98.7,42.5L98.7,42.5z M68,38.2h2.4
		c0.8,0,1.5-0.2,2-0.7c0.5-0.4,0.8-1,0.8-1.7c0-0.7-0.3-1.3-0.8-1.8c-0.5-0.4-1.2-0.7-2.1-0.7H68V38.2L68,38.2z M68,48.5h2.8
		c1.3,0,2.2-0.2,2.9-0.7c0.7-0.5,1-1.2,1-2.1c0-0.9-0.3-1.6-1-2.1c-0.6-0.5-1.6-0.7-3-0.7H68V48.5L68,48.5z M66.2,53.4
		c-1.5,0-2.5-0.3-3-0.8c-0.6-0.5-0.8-1.4-0.8-2.8V32.5c0-1.5,0.3-2.6,0.9-3.1c0.6-0.6,1.6-0.9,3-0.9h4.7c2.5,0,4.4,0.5,5.7,1.6
		c1.4,1.1,2,2.6,2,4.5c0,1.2-0.2,2.2-0.8,3c-0.5,0.8-1.3,1.4-2.3,1.9c1.6,0.4,2.9,1.1,3.7,2.2c0.9,1.1,1.3,2.4,1.3,4.1
		c0,2.3-0.8,4.2-2.3,5.5c-1.6,1.3-3.7,2-6.5,2H66.2L66.2,53.4z"/>
</g>
</svg>
