<?xml version="1.0" encoding="utf-8"?>
<!-- Generator: Adobe Illustrator 19.0.0, SVG Export Plug-In . SVG Version: 6.00 Build 0)  -->
<svg version="1.1" id="Layer_1" xmlns="http://www.w3.org/2000/svg" xmlns:xlink="http://www.w3.org/1999/xlink" x="0px" y="0px"
	 viewBox="0 0 112.8 138.5" style="enable-background:new 0 0 112.8 138.5;" xml:space="preserve">
<style type="text/css">
	.st0{fill-rule:evenodd;clip-rule:evenodd;fill:#E10109;}
	.st1{fill-rule:evenodd;clip-rule:evenodd;fill:#666666;}
	.st2{fill:#FFFFFF;}
</style>
<g id="XMLID_2_">
	<path id="XMLID_11_" class="st0" d="M53.3,6.3c-1.1-1.6-3-2.6-5-2.6c-2,0-3.8,0.9-5,2.6C30.9,23.5,0,68.8,0,90.2
		c0,26.7,21.6,48.3,48.3,48.3c26.7,0,48.3-21.6,48.3-48.3C96.6,68.8,65.6,23.5,53.3,6.3L53.3,6.3z M27.4,109.6c-0.8,1-2,1.5-3.2,1.5
		c-1,0-1.9-0.3-2.7-1c-12-10.1-7.8-25-7.7-25.6c0.6-2.2,3-3.5,5.2-2.9c2.2,0.6,3.5,3,2.9,5.2c-0.1,0.5-2.7,10.4,5,16.8
		C28.6,105.2,28.9,107.9,27.4,109.6L27.4,109.6z"/>
	<path id="XMLID_10_" class="st1" d="M77.2,10.4c17.8,0,32.2,14.4,32.2,32.2c0,17.8-14.4,32.2-32.2,32.2C59.4,74.8,45,60.4,45,42.6
		C45,24.8,59.4,10.4,77.2,10.4L77.2,10.4z"/>
	<path id="XMLID_7_" class="st2" d="M77.2,7c9.8,0,18.7,4,25.1,10.4h0c6.4,6.4,10.4,15.3,10.4,25.2c0,9.8-4,18.7-10.4,25.1l0,0
		C95.9,74.2,87,78.2,77.2,78.2c-9.8,0-18.7-4-25.2-10.4v0c-6.4-6.4-10.4-15.3-10.4-25.1c0-9.8,4-18.7,10.4-25.2
		C58.5,11,67.4,7,77.2,7L77.2,7z M97.6,22.2c-5.2-5.2-12.4-8.4-20.4-8.4c-8,0-15.2,3.2-20.4,8.4c-5.2,5.2-8.5,12.4-8.5,20.4
		c0,8,3.2,15.2,8.4,20.4l0,0c5.2,5.2,12.4,8.4,20.4,8.4c8,0,15.2-3.2,20.4-8.4c5.2-5.2,8.4-12.4,8.4-20.4
		C106,34.6,102.8,27.4,97.6,22.2L97.6,22.2L97.6,22.2z"/>
	<path id="XMLID_3_" class="st2" d="M100.4,44.2V41c-8.5,0-4.5,0-13,0v3.2C95.9,44.2,91.9,44.2,100.4,44.2L100.4,44.2z M66.4,42.7
		c0,2.3,0.6,4.2,1.7,5.6c1.1,1.4,2.6,2.1,4.4,2.1c1.8,0,3.3-0.7,4.4-2.1c1.1-1.4,1.7-3.2,1.7-5.6c0-2.4-0.5-4.3-1.6-5.7
		c-1.1-1.4-2.6-2.1-4.4-2.1c-1.8,0-3.3,0.7-4.4,2.1C66.9,38.4,66.4,40.3,66.4,42.7L66.4,42.7z M60.2,42.6c0-3.9,1.1-7.1,3.4-9.5
		c2.2-2.4,5.2-3.6,8.8-3.6c3.7,0,6.6,1.2,8.9,3.6c2.3,2.4,3.4,5.6,3.4,9.5c0,3.9-1.1,7.1-3.4,9.5c-2.2,2.4-5.2,3.6-8.9,3.6
		c-3.7,0-6.6-1.2-8.9-3.6C61.4,49.7,60.2,46.5,60.2,42.6L60.2,42.6z"/>
</g>
</svg>
