<?xml version="1.0" encoding="utf-8"?>
<!-- Generator: Adobe Illustrator 19.0.0, SVG Export Plug-In . SVG Version: 6.00 Build 0)  -->
<svg version="1.1" id="Layer_1" xmlns="http://www.w3.org/2000/svg" xmlns:xlink="http://www.w3.org/1999/xlink" x="0px" y="0px"
	 viewBox="0 0 112.8 138.5" style="enable-background:new 0 0 112.8 138.5;" xml:space="preserve">
<style type="text/css">
	.st0{fill-rule:evenodd;clip-rule:evenodd;fill:#E10109;}
	.st1{fill-rule:evenodd;clip-rule:evenodd;fill:#666666;}
	.st2{fill:#FFFFFF;}
</style>
<g id="XMLID_3_">
	<path id="XMLID_12_" class="st0" d="M53.3,4.4c-1.1-1.6-3-2.6-5-2.6c-2,0-3.8,0.9-5,2.6C30.9,21.6,0,67,0,88.3
		c0,26.7,21.6,48.3,48.3,48.3c26.7,0,48.3-21.6,48.3-48.3C96.6,67,65.6,21.6,53.3,4.4L53.3,4.4z M27.4,107.8c-0.8,1-2,1.5-3.2,1.5
		c-1,0-1.9-0.3-2.7-1c-12-10.1-7.8-25-7.7-25.6c0.6-2.2,3-3.5,5.2-2.9c2.2,0.6,3.5,3,2.9,5.2c-0.1,0.5-2.7,10.4,5,16.8
		C28.6,103.4,28.9,106,27.4,107.8L27.4,107.8z"/>
	<path id="XMLID_11_" class="st1" d="M77.2,8.6c17.8,0,32.2,14.4,32.2,32.2C109.4,58.6,95,73,77.2,73C59.4,73,45,58.6,45,40.8
		C45,23,59.4,8.6,77.2,8.6L77.2,8.6z"/>
	<path id="XMLID_8_" class="st2" d="M77.2,5.2c9.8,0,18.7,4,25.1,10.4h0c6.4,6.4,10.4,15.3,10.4,25.2c0,9.8-4,18.7-10.4,25.1l0,0
		C95.9,72.4,87,76.3,77.2,76.3c-9.8,0-18.7-4-25.1-10.4l0,0c-6.4-6.4-10.4-15.3-10.4-25.2c0-9.8,4-18.7,10.4-25.2l0,0
		C58.5,9.2,67.4,5.2,77.2,5.2L77.2,5.2z M97.6,20.4c-5.2-5.2-12.4-8.4-20.4-8.4c-8,0-15.2,3.2-20.4,8.4v0
		c-5.2,5.2-8.4,12.4-8.4,20.4c0,8,3.2,15.2,8.4,20.4v0c5.2,5.2,12.4,8.4,20.4,8.4c8,0,15.2-3.2,20.4-8.4c5.2-5.2,8.4-12.4,8.4-20.4
		C106,32.8,102.8,25.6,97.6,20.4L97.6,20.4L97.6,20.4z"/>
	<path id="XMLID_4_" class="st2" d="M95.5,47.3v-4.9h4.9v-3.2h-4.9v-4.9h-3.2v4.9h-4.9v3.2h4.9v4.9H95.5L95.5,47.3z M66.4,40.8
		c0,2.3,0.6,4.2,1.7,5.6c1.1,1.4,2.6,2.1,4.4,2.1c1.8,0,3.3-0.7,4.4-2.1c1.1-1.4,1.7-3.2,1.7-5.6c0-2.4-0.6-4.3-1.6-5.7
		c-1.1-1.4-2.6-2.1-4.4-2.1c-1.8,0-3.3,0.7-4.4,2.1C66.9,36.5,66.4,38.4,66.4,40.8L66.4,40.8z M60.2,40.8c0-3.9,1.1-7.1,3.4-9.5
		c2.2-2.4,5.2-3.6,8.8-3.6c3.7,0,6.6,1.2,8.9,3.6c2.3,2.4,3.4,5.6,3.4,9.5c0,3.9-1.1,7.1-3.4,9.5c-2.2,2.4-5.2,3.6-8.9,3.6
		c-3.7,0-6.6-1.2-8.9-3.6C61.4,47.9,60.2,44.7,60.2,40.8L60.2,40.8z"/>
</g>
</svg>
